<svg xmlns="http://www.w3.org/2000/svg" viewBox="0 0 1600 900" role="img" aria-labelledby="title desc">
  <title id="title">BetterScriptable project overview</title>
  <desc id="desc">Workflow diagram showing BetterScriptable Generator, generated C# code, the betterscriptable authoring document edited by BSE, the exported runtime asset, and game runtime usage.</desc>
  <defs>
    <style>
      .bg { fill: #f7fafc; }
      .title { font: 800 58px Arial, sans-serif; fill: #102033; letter-spacing: .2px; }
      .subtitle { font: 400 24px Arial, sans-serif; fill: #526172; }
      .box { fill: #ffffff; stroke: #cdd8e4; stroke-width: 2; rx: 22; }
      .box-strong { fill: #f8fffb; stroke: #46b777; stroke-width: 3; rx: 22; }
      .box-blue { fill: #f6fbff; stroke: #4695d6; stroke-width: 3; rx: 22; }
      .box-yellow { fill: #fffaf0; stroke: #e4aa2a; stroke-width: 3; rx: 22; }
      .heading { font: 800 28px Arial, sans-serif; fill: #14243a; }
      .label { font: 600 18px Arial, sans-serif; fill: #2b3d52; }
      .small { font: 500 15px Arial, sans-serif; fill: #526172; }
      .tiny { font: 600 13px Arial, sans-serif; fill: #607184; }
      .pill { fill: #eef5fb; stroke: #d5e2ef; stroke-width: 1.5; rx: 12; }
      .pill-green { fill: #eaf8ef; stroke: #b8e2c6; stroke-width: 1.5; rx: 12; }
      .pill-yellow { fill: #fff1cc; stroke: #f0cf79; stroke-width: 1.5; rx: 12; }
      .arrow { stroke: #5f748a; stroke-width: 4; fill: none; stroke-linecap: round; stroke-linejoin: round; marker-end: url(#arrowhead); }
      .export { stroke: #25a35a; stroke-width: 4; fill: none; stroke-linecap: round; stroke-linejoin: round; marker-end: url(#arrowhead-green); }
      .grid-line { stroke: #dce6ef; stroke-width: 1.5; }
      .grid-head { fill: #eaf3fb; }
      .grid-cell { fill: #ffffff; }
      .bottom { fill: #102033; rx: 20; }
      .bottomText { font: 700 22px Arial, sans-serif; fill: #ffffff; }
      .bottomSmall { font: 500 16px Arial, sans-serif; fill: #c9d7e5; }
    </style>
    <marker id="arrowhead" markerWidth="12" markerHeight="12" refX="10" refY="6" orient="auto">
      <path d="M2,2 L10,6 L2,10 Z" fill="#5f748a"/>
    </marker>
    <marker id="arrowhead-green" markerWidth="12" markerHeight="12" refX="10" refY="6" orient="auto">
      <path d="M2,2 L10,6 L2,10 Z" fill="#25a35a"/>
    </marker>
  </defs>

  <rect class="bg" width="1600" height="900"/>

  <text x="800" y="72" text-anchor="middle" class="title">BetterScriptable</text>
  <text x="800" y="112" text-anchor="middle" class="subtitle">Spreadsheet-style authoring for Unity ScriptableObject game data</text>

  <rect x="70" y="178" width="240" height="210" class="box-strong"/>
  <text x="190" y="225" text-anchor="middle" class="heading">BSG</text>
  <text x="190" y="255" text-anchor="middle" class="label">Generator</text>
  <rect x="102" y="286" width="176" height="32" class="pill-green"/>
  <text x="190" y="308" text-anchor="middle" class="small">Schema Definition</text>
  <rect x="102" y="326" width="176" height="32" class="pill-green"/>
  <text x="190" y="348" text-anchor="middle" class="small">Asset Fields</text>
  <rect x="102" y="366" width="176" height="32" class="pill-green"/>
  <text x="190" y="388" text-anchor="middle" class="small">Array Data + FieldId</text>

  <path class="arrow" d="M320 283 H412"/>

  <rect x="430" y="178" width="250" height="210" class="box-blue"/>
  <text x="555" y="224" text-anchor="middle" class="heading">Generated C#</text>
  <text x="555" y="258" text-anchor="middle" class="small">BetterScriptableAsset</text>
  <text x="555" y="288" text-anchor="middle" class="small">Serializable row classes</text>
  <text x="555" y="318" text-anchor="middle" class="small">Editor Factory</text>
  <rect x="474" y="346" width="162" height="34" class="pill"/>
  <text x="555" y="369" text-anchor="middle" class="small">Assets/Create</text>

  <path class="arrow" d="M690 283 H765"/>

  <rect x="790" y="150" width="300" height="155" class="box-yellow"/>
  <text x="940" y="194" text-anchor="middle" class="heading">*.betterscriptable</text>
  <text x="940" y="228" text-anchor="middle" class="small">Authoring source of truth</text>
  <text x="940" y="258" text-anchor="middle" class="small">Data + formulas + design fields</text>
  <text x="940" y="286" text-anchor="middle" class="small">FieldId-based storage</text>

  <rect x="790" y="365" width="300" height="135" class="box"/>
  <text x="940" y="410" text-anchor="middle" class="heading">*.asset</text>
  <text x="940" y="444" text-anchor="middle" class="small">Exported runtime output</text>
  <text x="940" y="474" text-anchor="middle" class="small">Not edited directly in BSE</text>

  <path class="export" d="M940 314 V353"/>
  <rect x="840" y="318" width="200" height="30" class="pill-green"/>
  <text x="940" y="339" text-anchor="middle" class="tiny">BSE Save &amp; Export</text>

  <path class="arrow" d="M1104 229 H1175"/>
  <text x="1140" y="216" text-anchor="middle" class="tiny">Open source document</text>

  <rect x="1195" y="150" width="335" height="350" class="box-blue"/>
  <text x="1362" y="194" text-anchor="middle" class="heading">BSE</text>
  <text x="1362" y="224" text-anchor="middle" class="label">BetterScriptable Editor</text>
  <rect x="1230" y="248" width="265" height="170" rx="12" fill="#ffffff" stroke="#d5e2ef" stroke-width="2"/>
  <rect x="1230" y="248" width="265" height="36" class="grid-head"/>
  <line x1="1288" y1="248" x2="1288" y2="418" class="grid-line"/>
  <line x1="1372" y1="248" x2="1372" y2="418" class="grid-line"/>
  <line x1="1448" y1="248" x2="1448" y2="418" class="grid-line"/>
  <line x1="1230" y1="284" x2="1495" y2="284" class="grid-line"/>
  <line x1="1230" y1="318" x2="1495" y2="318" class="grid-line"/>
  <line x1="1230" y1="352" x2="1495" y2="352" class="grid-line"/>
  <line x1="1230" y1="386" x2="1495" y2="386" class="grid-line"/>
  <text x="1259" y="272" text-anchor="middle" class="tiny">A Id</text>
  <text x="1330" y="272" text-anchor="middle" class="tiny">B Name</text>
  <text x="1410" y="272" text-anchor="middle" class="tiny">C Weight</text>
  <text x="1470" y="272" text-anchor="middle" class="tiny">D Key</text>
  <text x="1259" y="307" text-anchor="middle" class="tiny">1</text>
  <text x="1330" y="307" text-anchor="middle" class="tiny">Cookie</text>
  <text x="1410" y="307" text-anchor="middle" class="tiny">18</text>
  <text x="1470" y="307" text-anchor="middle" class="tiny">c0001</text>
  <text x="1259" y="341" text-anchor="middle" class="tiny">2</text>
  <text x="1330" y="341" text-anchor="middle" class="tiny">Berry</text>
  <text x="1410" y="341" text-anchor="middle" class="tiny">14</text>
  <text x="1470" y="341" text-anchor="middle" class="tiny">c0002</text>
  <rect x="1230" y="432" width="265" height="34" class="pill-yellow"/>
  <text x="1362" y="454" text-anchor="middle" class="tiny">D = 'cookie' + FORMAT(A, '0000')</text>
  <text x="1362" y="488" text-anchor="middle" class="small">Edit *.betterscriptable only</text>

  <path class="arrow" d="M1098 432 C1150 540 1240 580 1305 600"/>
  <text x="1172" y="535" text-anchor="middle" class="tiny">Runtime reads .asset</text>
  <rect x="1195" y="585" width="335" height="145" class="box-strong"/>
  <text x="1362" y="635" text-anchor="middle" class="heading">Game Runtime</text>
  <text x="1362" y="670" text-anchor="middle" class="small">Read-only data access</text>
  <text x="1362" y="700" text-anchor="middle" class="small">ScriptableObject references</text>

  <rect x="70" y="640" width="1020" height="92" class="bottom"/>
  <text x="100" y="681" class="bottomText">Existing ScriptableObject migration</text>
  <text x="100" y="712" class="bottomSmall">Existing class + *.asset → Recreate → Factory + *.betterscriptable → Save &amp; Export</text>
  <path d="M690 700 H1010" stroke="#89d9a8" stroke-width="4" fill="none" stroke-linecap="round" marker-end="url(#arrowhead-green)"/>
</svg>
